HIERARCHY
ROOT CC_Base_BoneRoot
{
	OFFSET 0.000000 0.000000 0.000000
	CHANNELS 6 Xposition Yposition Zposition Xrotation Yrotation Zrotation
	JOINT CC_Base_Hip
	{
		OFFSET 0.000000 0.000000 105.214241
		CHANNELS 3 Xrotation Yrotation Zrotation
		JOINT CC_Base_Pelvis
		{
			OFFSET -0.000000 -0.000001 -0.000069
			CHANNELS 3 Xrotation Yrotation Zrotation
			JOINT CC_Base_L_Thigh
			{
				OFFSET 9.679232 0.301105 -2.207489
				CHANNELS 3 Xrotation Yrotation Zrotation
				JOINT CC_Base_L_Calf
				{
					OFFSET -0.939750 -0.172164 -47.658329
					CHANNELS 3 Xrotation Yrotation Zrotation
					JOINT CC_Base_L_Foot
					{
						OFFSET -0.952431 0.632389 -49.810875
						CHANNELS 3 Xrotation Yrotation Zrotation
						JOINT CC_Base_L_ToeBaseShareBone
						{
							OFFSET 1.566516 -13.132577 -2.423887
							CHANNELS 3 Xrotation Yrotation Zrotation
							End Site
							{
								OFFSET 0.820910 -13.277843 1.311294
							}
						}
						JOINT CC_Base_L_ToeBase
						{
							OFFSET 1.556535 -12.970218 -2.440896
							CHANNELS 3 Xrotation Yrotation Zrotation
							JOINT CC_Base_L_PinkyToe1
							{
								OFFSET 3.000326 -0.095164 -0.265234
								CHANNELS 3 Xrotation Yrotation Zrotation
								End Site
								{
									OFFSET 0.071889 -2.740657 -1.237427
								}
							}
							JOINT CC_Base_L_RingToe1
							{
								OFFSET 1.613520 -1.258591 0.234524
								CHANNELS 3 Xrotation Yrotation Zrotation
								End Site
								{
									OFFSET 0.209102 -2.660546 -1.387572
								}
							}
							JOINT CC_Base_L_MidToe1
							{
								OFFSET 0.190605 -2.362959 0.359053
								CHANNELS 3 Xrotation Yrotation Zrotation
								End Site
								{
									OFFSET 0.263171 -2.823983 -1.001724
								}
							}
							JOINT CC_Base_L_IndexToe1
							{
								OFFSET -1.455172 -2.683045 0.570290
								CHANNELS 3 Xrotation Yrotation Zrotation
								End Site
								{
									OFFSET 0.326793 -2.793737 -1.065754
								}
							}
							JOINT CC_Base_L_BigToe1
							{
								OFFSET -3.660310 -2.552900 0.092412
								CHANNELS 3 Xrotation Yrotation Zrotation
								End Site
								{
									OFFSET 0.310800 -2.991206 -0.060640
								}
							}
						}
					}
					JOINT CC_Base_L_CalfTwist01
					{
						OFFSET -0.000006 0.000004 -0.000038
						CHANNELS 3 Xrotation Yrotation Zrotation
						JOINT CC_Base_L_CalfTwist02
						{
							OFFSET -0.475341 0.310379 -24.892138
							CHANNELS 3 Xrotation Yrotation Zrotation
							End Site
							{
								OFFSET -0.633384 0.481544 -24.885893
							}
						}
					}
					JOINT CC_Base_L_KneeShareBone
					{
						OFFSET -0.000010 0.000005 -0.000038
						CHANNELS 3 Xrotation Yrotation Zrotation
						End Site
						{
							OFFSET -0.422251 0.318261 -16.599602
						}
					}
				}
				JOINT CC_Base_L_ThighTwist01
				{
					OFFSET -0.000006 0.000002 -0.000031
					CHANNELS 3 Xrotation Yrotation Zrotation
					JOINT CC_Base_L_ThighTwist02
					{
						OFFSET -0.465212 -0.080397 -23.828621
						CHANNELS 3 Xrotation Yrotation Zrotation
						End Site
						{
							OFFSET -0.577665 -0.248224 -23.825005
						}
					}
				}
			}
			JOINT CC_Base_R_Thigh
			{
				OFFSET -9.679712 0.301104 -2.207550
				CHANNELS 3 Xrotation Yrotation Zrotation
				JOINT CC_Base_R_ThighTwist01
				{
					OFFSET 0.000007 -0.000003 -0.000008
					CHANNELS 3 Xrotation Yrotation Zrotation
					JOINT CC_Base_R_ThighTwist02
					{
						OFFSET 0.464272 -0.089817 -23.829117
						CHANNELS 3 Xrotation Yrotation Zrotation
						End Site
						{
							OFFSET 0.584725 -0.252406 -23.825294
						}
					}
				}
				JOINT CC_Base_R_Calf
				{
					OFFSET 0.937987 -0.190387 -47.658482
					CHANNELS 3 Xrotation Yrotation Zrotation
					JOINT CC_Base_R_Foot
					{
						OFFSET 0.950368 0.643215 -49.811081
						CHANNELS 3 Xrotation Yrotation Zrotation
						JOINT CC_Base_R_ToeBase
						{
							OFFSET -1.559783 -13.132576 -2.424223
							CHANNELS 3 Xrotation Yrotation Zrotation
							JOINT CC_Base_R_PinkyToe1
							{
								OFFSET -2.990087 -0.102175 -0.270662
								CHANNELS 3 Xrotation Yrotation Zrotation
								End Site
								{
									OFFSET -0.079772 -2.736538 -1.234487
								}
							}
							JOINT CC_Base_R_BigToe1
							{
								OFFSET 3.670992 -2.549512 0.084144
								CHANNELS 3 Xrotation Yrotation Zrotation
								End Site
								{
									OFFSET -0.319780 -2.985505 -0.058824
								}
							}
							JOINT CC_Base_R_IndexToe1
							{
								OFFSET 1.462413 -2.674656 0.556736
								CHANNELS 3 Xrotation Yrotation Zrotation
								End Site
								{
									OFFSET -0.334732 -2.788952 -1.062384
								}
							}
							JOINT CC_Base_R_MidToe1
							{
								OFFSET -0.182861 -2.360682 0.344119
								CHANNELS 3 Xrotation Yrotation Zrotation
								End Site
								{
									OFFSET -0.271526 -2.819080 -0.999012
								}
							}
							JOINT CC_Base_R_RingToe1
							{
								OFFSET -1.607688 -1.252522 0.222115
								CHANNELS 3 Xrotation Yrotation Zrotation
								End Site
								{
									OFFSET -0.216478 -2.655741 -1.385331
								}
							}
						}
						JOINT CC_Base_R_ToeBaseShareBone
						{
							OFFSET -1.559776 -13.132500 -2.424137
							CHANNELS 3 Xrotation Yrotation Zrotation
							End Site
							{
								OFFSET -0.869085 -13.350641 1.333500
							}
						}
					}
					JOINT CC_Base_R_KneeShareBone
					{
						OFFSET -0.000003 -0.000001 -0.000011
						CHANNELS 3 Xrotation Yrotation Zrotation
						End Site
						{
							OFFSET 0.423583 0.316123 -16.599697
						}
					}
					JOINT CC_Base_R_CalfTwist01
					{
						OFFSET -0.000003 -0.000001 -0.000011
						CHANNELS 3 Xrotation Yrotation Zrotation
						JOINT CC_Base_R_CalfTwist02
						{
							OFFSET 0.474322 0.315302 -24.892122
							CHANNELS 3 Xrotation Yrotation Zrotation
							End Site
							{
								OFFSET 0.638875 0.494206 -24.885532
							}
						}
					}
				}
			}
		}
		JOINT CC_Base_Waist
		{
			OFFSET 0.000123 -1.391190 7.892227
			CHANNELS 3 Xrotation Yrotation Zrotation
			JOINT CC_Base_Spine01
			{
				OFFSET -0.000665 -2.896428 4.000412
				CHANNELS 3 Xrotation Yrotation Zrotation
				JOINT CC_Base_Spine02
				{
					OFFSET -0.000151 3.172371 14.481407
					CHANNELS 3 Xrotation Yrotation Zrotation
					JOINT CC_Base_NeckTwist01
					{
						OFFSET 0.001830 5.037313 26.915466
						CHANNELS 3 Xrotation Yrotation Zrotation
						JOINT CC_Base_NeckTwist02
						{
							OFFSET -0.000429 -0.994779 3.682953
							CHANNELS 3 Xrotation Yrotation Zrotation
							JOINT CC_Base_Head
							{
								OFFSET -0.000365 -1.056073 3.987289
								CHANNELS 3 Xrotation Yrotation Zrotation
								JOINT CC_Base_FacialBone
								{
									OFFSET -0.000076 -0.000019 -0.000015
									CHANNELS 3 Xrotation Yrotation Zrotation
									JOINT CC_Base_JawRoot
									{
										OFFSET 0.000166 -2.577461 1.589859
										CHANNELS 3 Xrotation Yrotation Zrotation
										JOINT CC_Base_Tongue01
										{
											OFFSET -0.000266 -3.515649 -0.902802
											CHANNELS 3 Xrotation Yrotation Zrotation
											JOINT CC_Base_Tongue02
											{
												OFFSET -0.000103 -1.192833 -0.092529
												CHANNELS 3 Xrotation Yrotation Zrotation
												JOINT CC_Base_Tongue03
												{
													OFFSET -0.000133 -1.588274 -0.455170
													CHANNELS 3 Xrotation Yrotation Zrotation
													End Site
													{
														OFFSET -0.000195 0.578345 -1.547684
													}
												}
											}
										}
										JOINT CC_Base_Teeth02
										{
											OFFSET -0.000445 -3.518791 -0.882431
											CHANNELS 3 Xrotation Yrotation Zrotation
											End Site
											{
												OFFSET -0.000062 0.000900 3.628738
											}
										}
									}
									JOINT CC_Base_R_Eye
									{
										OFFSET -3.320127 -8.218504 8.193512
										CHANNELS 3 Xrotation Yrotation Zrotation
										End Site
										{
											OFFSET 0.002065 8.681551 -0.000092
										}
									}
									JOINT CC_Base_L_Eye
									{
										OFFSET 3.318957 -8.219094 8.193741
										CHANNELS 3 Xrotation Yrotation Zrotation
										End Site
										{
											OFFSET 0.002065 8.681551 0.000015
										}
									}
									JOINT CC_Base_UpperJaw
									{
										OFFSET -0.000138 -6.915838 3.044510
										CHANNELS 3 Xrotation Yrotation Zrotation
										JOINT CC_Base_Teeth01
										{
											OFFSET -0.000113 -0.066461 0.210709
											CHANNELS 3 Xrotation Yrotation Zrotation
											End Site
											{
												OFFSET 0.000006 0.000046 0.220947
											}
										}
									}
								}
							}
						}
					}
					JOINT CC_Base_L_Clavicle
					{
						OFFSET 5.625835 3.736514 20.628326
						CHANNELS 3 Xrotation Yrotation Zrotation
						JOINT CC_Base_L_Upperarm
						{
							OFFSET 12.748119 2.616885 -0.026810
							CHANNELS 3 Xrotation Yrotation Zrotation
							JOINT CC_Base_L_Forearm
							{
								OFFSET 25.207462 0.007299 -0.258804
								CHANNELS 3 Xrotation Yrotation Zrotation
								JOINT CC_Base_L_ForearmTwist01
								{
									OFFSET -0.000061 0.000038 0.000046
									CHANNELS 3 Xrotation Yrotation Zrotation
									JOINT CC_Base_L_ForearmTwist02
									{
										OFFSET 12.849483 -0.003518 0.057983
										CHANNELS 3 Xrotation Yrotation Zrotation
										End Site
										{
											OFFSET 12.845856 -0.146425 -0.274261
										}
									}
								}
								JOINT CC_Base_L_ElbowShareBone
								{
									OFFSET -0.000008 -0.000001 -0.000031
									CHANNELS 3 Xrotation Yrotation Zrotation
									End Site
									{
										OFFSET 8.567738 -0.043919 -0.182861
									}
								}
								JOINT CC_Base_L_Hand
								{
									OFFSET 25.708935 0.000525 0.133942
									CHANNELS 3 Xrotation Yrotation Zrotation
									JOINT CC_Base_L_Mid1
									{
										OFFSET 11.379295 -1.876784 -0.235855
										CHANNELS 3 Xrotation Yrotation Zrotation
										JOINT CC_Base_L_Mid2
										{
											OFFSET 4.206909 -0.123435 0.033875
											CHANNELS 3 Xrotation Yrotation Zrotation
											JOINT CC_Base_L_Mid3
											{
												OFFSET 2.707268 -0.095429 0.031494
												CHANNELS 3 Xrotation Yrotation Zrotation
												End Site
												{
													OFFSET 2.699577 -0.042444 -0.223358
												}
											}
										}
									}
									JOINT CC_Base_L_Index1
									{
										OFFSET 11.270035 -4.733048 0.074539
										CHANNELS 3 Xrotation Yrotation Zrotation
										JOINT CC_Base_L_Index2
										{
											OFFSET 3.081078 -0.105606 0.039658
											CHANNELS 3 Xrotation Yrotation Zrotation
											JOINT CC_Base_L_Index3
											{
												OFFSET 2.603844 -0.079981 0.040771
												CHANNELS 3 Xrotation Yrotation Zrotation
												End Site
												{
													OFFSET 2.590714 -0.033555 -0.274155
												}
											}
										}
									}
									JOINT CC_Base_L_Ring1
									{
										OFFSET 11.200226 0.468256 -1.122910
										CHANNELS 3 Xrotation Yrotation Zrotation
										JOINT CC_Base_L_Ring2
										{
											OFFSET 3.548828 -0.120251 0.012604
											CHANNELS 3 Xrotation Yrotation Zrotation
											JOINT CC_Base_L_Ring3
											{
												OFFSET 2.486275 -0.090200 0.002686
												CHANNELS 3 Xrotation Yrotation Zrotation
												End Site
												{
													OFFSET 2.478577 0.023370 -0.214066
												}
											}
										}
									}
									JOINT CC_Base_L_Pinky1
									{
										OFFSET 10.416008 2.486697 -2.113419
										CHANNELS 3 Xrotation Yrotation Zrotation
										JOINT CC_Base_L_Pinky2
										{
											OFFSET 2.772491 -0.086895 -0.000244
											CHANNELS 3 Xrotation Yrotation Zrotation
											JOINT CC_Base_L_Pinky3
											{
												OFFSET 2.170418 -0.104033 -0.002472
												CHANNELS 3 Xrotation Yrotation Zrotation
												End Site
												{
													OFFSET 2.151093 -0.017404 -0.306686
												}
											}
										}
									}
									JOINT CC_Base_L_Thumb1
									{
										OFFSET 5.097328 -5.012833 -1.319916
										CHANNELS 3 Xrotation Yrotation Zrotation
										JOINT CC_Base_L_Thumb2
										{
											OFFSET 2.023773 -1.980936 0.020203
											CHANNELS 3 Xrotation Yrotation Zrotation
											JOINT CC_Base_L_Thumb3
											{
												OFFSET 3.367142 -1.516251 -0.003632
												CHANNELS 3 Xrotation Yrotation Zrotation
												End Site
												{
													OFFSET 3.222420 -1.803511 0.004181
												}
											}
										}
									}
								}
							}
							JOINT CC_Base_L_UpperarmTwist01
							{
								OFFSET 0.000006 0.000000 -0.000092
								CHANNELS 3 Xrotation Yrotation Zrotation
								JOINT CC_Base_L_UpperarmTwist02
								{
									OFFSET 12.626181 0.017348 -0.086411
									CHANNELS 3 Xrotation Yrotation Zrotation
									End Site
									{
										OFFSET 12.614151 -0.116489 -0.545715
									}
								}
							}
						}
					}
					JOINT CC_Base_R_Clavicle
					{
						OFFSET -5.621921 3.738149 20.628403
						CHANNELS 3 Xrotation Yrotation Zrotation
						JOINT CC_Base_R_Upperarm
						{
							OFFSET -12.747458 2.620382 -0.027130
							CHANNELS 3 Xrotation Yrotation Zrotation
							JOINT CC_Base_R_UpperarmTwist01
							{
								OFFSET 0.000004 -0.000002 0.000061
								CHANNELS 3 Xrotation Yrotation Zrotation
								JOINT CC_Base_R_UpperarmTwist02
								{
									OFFSET -12.626461 0.032800 -0.087509
									CHANNELS 3 Xrotation Yrotation Zrotation
									End Site
									{
										OFFSET -12.614147 -0.143803 -0.546738
									}
								}
							}
							JOINT CC_Base_R_Forearm
							{
								OFFSET -25.207649 0.030312 -0.259460
								CHANNELS 3 Xrotation Yrotation Zrotation
								JOINT CC_Base_R_ForearmTwist01
								{
									OFFSET -0.000069 -0.000037 -0.000259
									CHANNELS 3 Xrotation Yrotation Zrotation
									JOINT CC_Base_R_ForearmTwist02
									{
										OFFSET -12.849583 0.005212 0.057632
										CHANNELS 3 Xrotation Yrotation Zrotation
										End Site
										{
											OFFSET -12.845531 -0.178712 -0.274628
										}
									}
								}
								JOINT CC_Base_R_ElbowShareBone
								{
									OFFSET 0.000011 0.000005 -0.000198
									CHANNELS 3 Xrotation Yrotation Zrotation
									End Site
									{
										OFFSET -8.567799 -0.064058 -0.182922
									}
								}
								JOINT CC_Base_R_Hand
								{
									OFFSET -25.709145 0.019975 0.132889
									CHANNELS 3 Xrotation Yrotation Zrotation
									JOINT CC_Base_R_Mid1
									{
										OFFSET -11.380081 -1.865469 -0.234695
										CHANNELS 3 Xrotation Yrotation Zrotation
										JOINT CC_Base_R_Mid2
										{
											OFFSET -4.207092 -0.119065 0.033829
											CHANNELS 3 Xrotation Yrotation Zrotation
											JOINT CC_Base_R_Mid3
											{
												OFFSET -2.707199 -0.092269 0.031372
												CHANNELS 3 Xrotation Yrotation Zrotation
												End Site
												{
													OFFSET -2.699371 -0.048402 -0.222458
												}
											}
										}
									}
									JOINT CC_Base_R_Ring1
									{
										OFFSET -11.199821 0.477916 -1.123932
										CHANNELS 3 Xrotation Yrotation Zrotation
										JOINT CC_Base_R_Ring2
										{
											OFFSET -3.548981 -0.116987 0.012604
											CHANNELS 3 Xrotation Yrotation Zrotation
											JOINT CC_Base_R_Ring3
											{
												OFFSET -2.486282 -0.087294 0.002426
												CHANNELS 3 Xrotation Yrotation Zrotation
												End Site
												{
													OFFSET -2.478539 0.017891 -0.213837
												}
											}
										}
									}
									JOINT CC_Base_R_Thumb1
									{
										OFFSET -5.101601 -5.060779 -1.317978
										CHANNELS 3 Xrotation Yrotation Zrotation
										JOINT CC_Base_R_Thumb2
										{
											OFFSET -2.022972 -1.980966 0.019958
											CHANNELS 3 Xrotation Yrotation Zrotation
											JOINT CC_Base_R_Thumb3
											{
												OFFSET -3.366974 -1.734020 -0.002975
												CHANNELS 3 Xrotation Yrotation Zrotation
												End Site
												{
													OFFSET -3.295723 -1.865891 0.004898
												}
											}
										}
									}
									JOINT CC_Base_R_Index1
									{
										OFFSET -11.272018 -4.721709 0.078278
										CHANNELS 3 Xrotation Yrotation Zrotation
										JOINT CC_Base_R_Index2
										{
											OFFSET -3.081085 -0.102337 0.039734
											CHANNELS 3 Xrotation Yrotation Zrotation
											JOINT CC_Base_R_Index3
											{
												OFFSET -2.603897 -0.076826 0.040741
												CHANNELS 3 Xrotation Yrotation Zrotation
												End Site
												{
													OFFSET -2.590599 -0.039103 -0.274048
												}
											}
										}
									}
									JOINT CC_Base_R_Pinky1
									{
										OFFSET -10.414719 2.497349 -2.116714
										CHANNELS 3 Xrotation Yrotation Zrotation
										JOINT CC_Base_R_Pinky2
										{
											OFFSET -2.772430 -0.083082 -0.000153
											CHANNELS 3 Xrotation Yrotation Zrotation
											JOINT CC_Base_R_Pinky3
											{
												OFFSET -2.170349 -0.100748 -0.002747
												CHANNELS 3 Xrotation Yrotation Zrotation
												End Site
												{
													OFFSET -2.150795 -0.021683 -0.306870
												}
											}
										}
									}
								}
							}
						}
					}
					JOINT CC_Base_R_RibsTwist
					{
						OFFSET -10.856568 -8.884927 8.713364
						CHANNELS 3 Xrotation Yrotation Zrotation
						JOINT CC_Base_R_Breast
						{
							OFFSET 0.000867 -3.000035 -0.000153
							CHANNELS 3 Xrotation Yrotation Zrotation
							End Site
							{
								OFFSET -0.000044 -3.000034 -0.000320
							}
						}
					}
					JOINT CC_Base_L_RibsTwist
					{
						OFFSET 10.835660 -8.887159 8.684448
						CHANNELS 3 Xrotation Yrotation Zrotation
						JOINT CC_Base_L_Breast
						{
							OFFSET -0.001493 -3.000003 -0.000214
							CHANNELS 3 Xrotation Yrotation Zrotation
							End Site
							{
								OFFSET -0.000053 -3.000003 -0.000320
							}
						}
					}
				}
			}
		}
	}
}
MOTION
Frames: 2
Frame Time: 0.016667
0.000000 0.000000 0.000000 -0.000000 0.000000 -0.039565 0.855400 0.561029 -0.004821 -0.000008 0.000000 -0.000000 -2.692964 -8.233438 7.941727 7.909567 -0.024464 -0.138495 -3.990158 7.129382 4.568243 0.000008 0.000001 -0.000001 -1.213186 0.306929 -0.153285 -0.000009 -0.000001 0.000001 0.000006 -0.000003 0.000001 0.000005 -0.000001 0.000001 0.000008 -0.000001 0.000002 -0.000005 0.000001 -0.000005 -0.001566 0.001199 -0.061958 0.109797 -0.077294 4.200972 -3.953457 0.129561 0.045708 -0.095758 -0.037231 -3.878476 0.092606 0.043561 3.878423 2.100518 -2.152368 0.123813 0.000612 -0.000263 -0.024732 -0.000595 0.000262 0.024732 2.484705 0.000182 -0.046844 -5.439475 1.590231 -0.624361 -0.007651 0.008614 -2.437159 -0.000013 -0.000002 0.000000 -0.000006 -0.000001 0.000002 -0.000016 -0.000004 0.000001 -0.000007 -0.000000 0.000001 -0.000010 -0.000003 0.000001 -0.000007 0.000001 -0.000002 -1.243159 -0.040054 0.077420 -0.002827 -0.002156 0.110239 -0.009009 -0.007019 0.352061 -0.000022 0.185907 0.007863 -0.226141 3.961092 0.181698 3.095162 -7.271056 1.675170 -0.258505 0.098782 0.028568 -0.258641 0.098793 0.028569 -1.291251 2.782703 -1.893668 0.000016 0.000000 -0.000008 0.000002 -0.001144 0.001153 0.000017 0.000009 -0.000012 -0.000005 -0.000005 0.000001 0.000010 -0.000004 0.000004 0.000022 0.000011 -0.000010 -0.011345 -0.002286 0.011349 -0.011325 -0.002286 0.011344 0.000005 -0.001149 0.001152 0.000017 -0.000001 -0.000007 -1.789967 7.117647 0.599714 20.722816 73.185176 -17.316133 0.008159 -0.016845 -14.370336 -0.158156 0.001798 0.003360 2.997857 -0.035820 -0.063074 -0.129978 -0.048672 8.624781 5.851499 6.097877 7.417150 3.744569 21.409266 -1.493645 -0.119041 19.232436 0.709389 -0.129403 20.011285 0.740177 6.447336 9.624937 -2.914032 0.085621 14.560829 0.046503 0.089998 15.371971 0.048845 -9.372519 28.141196 2.496826 -0.483161 26.340435 0.088581 -0.499236 27.105442 0.094489 -10.488580 30.050312 2.876973 -0.424155 28.306121 0.130378 -0.438221 29.082502 0.143378 13.879579 11.521776 3.800724 1.299374 3.936879 15.744042 -0.631378 -1.153189 -4.985083 -3.546456 0.027986 0.154356 3.546367 -0.037465 -0.152316 -1.791812 -7.121458 -0.609404 16.105511 -69.737584 12.279863 -3.322864 -0.033699 -0.145030 3.322766 0.042041 0.142833 0.006447 0.011308 10.218900 -0.114787 -0.001599 -0.002457 3.146588 0.045611 0.066039 -0.095659 0.023579 -6.133252 6.155535 -6.929866 -7.330268 3.746940 -21.408658 1.494192 -0.117014 -19.233048 -0.709224 -0.127224 -20.010789 -0.740208 -9.369335 -28.142138 -2.496075 -0.480250 -26.340525 -0.087902 -0.496346 -27.105447 -0.094243 13.880836 -11.520293 -3.801555 1.299881 -3.936689 -15.743468 -0.631555 1.153139 4.984804 6.448398 -9.625153 2.914082 0.087116 -14.558506 -0.046706 0.091841 -15.373236 -0.049102 -10.485150 -30.051459 -2.875840 -0.421106 -28.307540 -0.129867 -0.434948 -29.082563 -0.136732 0.000015 0.000003 0.000003 0.000000 0.000000 -0.000002 0.000011 0.000006 -0.000001 -0.000000 0.000000 -0.000000 
0.038625 -0.070964 0.000000 -0.000000 0.000000 -1.291498 0.701334 1.071021 -0.000287 0.000021 0.000000 0.000000 -4.994816 -8.189186 7.424279 13.946928 -0.065341 -0.249490 -8.377998 6.270527 4.508551 0.000000 0.000002 0.000002 -0.973496 0.261899 1.076977 -0.000003 0.000000 -0.000001 0.000003 0.000001 -0.000005 0.000012 -0.000002 0.000000 0.000012 -0.000001 -0.000003 -0.000005 -0.000000 0.000000 -0.002575 0.001961 -0.101198 0.105290 -0.074349 4.032185 -6.971172 0.225008 0.095053 -0.088612 -0.034713 -3.592993 0.085877 0.040142 3.592948 0.766809 -1.540266 -1.437758 -0.018124 0.007686 0.736394 0.018031 -0.007918 -0.736392 8.936707 0.023537 0.138882 -10.174987 1.458292 -0.070566 0.543926 -1.046485 -1.585434 -0.000010 -0.000001 -0.000001 -0.000005 -0.000000 0.000001 -0.000016 -0.000005 0.000001 -0.000009 -0.000001 -0.000001 -0.000005 -0.000003 -0.000000 -0.000007 0.000002 0.000001 -4.467222 -0.142815 -0.033271 -0.002294 -0.001759 0.089974 -0.002561 -0.001987 0.099877 0.000032 0.094886 0.013570 0.706465 3.058956 -0.087142 3.991133 -7.366351 1.591048 -0.196717 0.144197 0.315057 -0.196945 0.144215 0.315061 -2.618683 3.364365 -1.281008 0.000019 0.000021 -0.000029 0.000036 -0.001157 0.001155 0.000004 0.000002 -0.000004 -0.000025 0.000002 -0.000004 0.000024 -0.000008 0.000007 -0.000001 -0.000003 -0.000001 -0.011331 -0.002286 0.011349 -0.011325 -0.002286 0.011344 0.000032 -0.001166 0.001164 -0.000001 -0.000001 -0.000009 -1.811848 7.070184 1.042436 21.292611 70.748766 -18.749107 0.009545 -0.021514 -17.854094 -0.195854 0.002228 0.004185 3.420046 -0.041136 -0.071810 -0.158873 -0.077206 10.715550 6.489777 6.053809 4.552918 3.474155 25.012330 -1.555363 -0.171251 22.783334 0.854031 -0.190710 23.961670 0.903270 6.259319 13.090712 -2.960417 0.109186 18.802018 0.056488 0.111195 19.189220 0.057609 -10.010801 31.470616 3.615067 -0.546953 29.306672 0.115603 -0.579956 30.780975 0.130249 -11.649950 33.789885 4.783896 -0.488926 31.776758 0.165474 -0.471518 30.874391 0.161587 14.235697 12.461533 3.600311 1.584754 4.481718 17.007227 -0.269337 -0.521387 -2.223278 -3.648191 0.028643 0.158799 3.648098 -0.038679 -0.156637 -1.910675 -7.276061 -1.542867 17.571980 -65.489575 10.761474 -4.875005 -0.046556 -0.213405 4.874798 0.064491 0.208677 0.008913 0.018253 15.496460 -0.174874 -0.002434 -0.003740 3.963859 0.058045 0.082779 -0.143491 0.058803 -9.300688 7.643177 -6.553053 -5.416363 3.476907 -25.011290 1.556042 -0.168754 -22.784908 -0.853775 -0.188054 -23.960730 -0.903106 -10.007199 -31.471931 -3.614097 -0.543709 -29.305651 -0.114781 -0.576559 -30.781808 -0.129830 14.236955 -12.459997 -3.600284 1.585202 -4.481468 -17.007782 -0.269356 0.521381 2.223507 6.260811 -13.091514 2.960543 0.111117 -18.798252 -0.056603 0.113533 -19.191326 -0.057760 -11.645972 -33.790411 -4.782407 -0.485342 -31.780286 -0.164782 -0.467989 -30.873302 -0.154744 0.000016 0.000003 0.000000 -0.000000 0.000000 -0.000001 0.000011 0.000007 -0.000001 -0.000000 0.000000 -0.000000 
